<?xml version="1.0" encoding="UTF-8"?> <svg xmlns="http://www.w3.org/2000/svg" width="661" height="196" viewBox="0 0 661 196" fill="none"><path d="M188.226 193.857H179.475C178.559 193.857 177.699 193.389 177.212 192.604L134.954 124.65C133.963 123.061 132.411 122.893 131.794 122.893C131.177 122.893 129.607 123.061 128.634 124.65L86.3763 192.604C85.8901 193.389 85.03 193.857 84.1138 193.857H75.363C73.2687 193.857 71.9974 191.557 73.1006 189.78L117.808 117.919C120.837 113.038 126.073 110.14 131.813 110.14C137.553 110.14 142.789 113.038 145.818 117.919L190.525 189.78C191.629 191.557 190.357 193.857 188.263 193.857H188.226Z" fill="#070707"></path><path d="M212.289 193.861H203.537C202.62 193.861 201.761 193.393 201.275 192.608L137.532 90.1166C136.261 88.0782 134.185 86.9189 131.792 86.9189C129.398 86.9189 127.304 88.0782 126.051 90.1166L62.3092 192.608C61.8231 193.393 60.9628 193.861 60.0466 193.861H51.296C49.2017 193.861 47.9303 191.561 49.0335 189.784L115.206 83.3847C118.797 77.6066 124.986 74.1659 131.792 74.1659C135.195 74.1659 138.43 75.0262 141.291 76.6155C144.133 78.2051 146.582 80.5051 148.377 83.3847L214.549 189.784C215.654 191.561 214.381 193.861 212.289 193.861Z" fill="#070707"></path><path d="M236.335 193.858H227.583C226.668 193.858 225.808 193.391 225.321 192.605L140.113 55.576C138.281 52.6402 135.252 50.9572 131.793 50.9572C128.334 50.9572 125.305 52.6402 123.472 55.576L38.2641 192.605C37.7779 193.391 36.9178 193.858 36.0016 193.858H27.2508C25.1565 193.858 23.885 191.558 24.9884 189.782L112.646 48.8256C116.703 42.2995 123.659 38.3353 131.325 38.1856C139.403 38.0173 146.92 42.3183 151.201 49.1809L238.635 189.763C239.738 191.539 238.467 193.839 236.372 193.839L236.335 193.858Z" fill="#070707"></path><path d="M260.401 193.857H251.651C250.734 193.857 249.874 193.39 249.389 192.604L142.696 21.0374C140.303 17.1854 136.338 14.9788 131.795 14.9788C127.251 14.9788 123.287 17.1854 120.894 21.0374L14.2017 192.604C13.7156 193.39 12.8554 193.857 11.9392 193.857H3.18844C1.09423 193.857 -0.177291 191.557 0.925905 189.781L110.067 14.287C114.78 6.73241 122.895 2.20715 131.814 2.20715C140.733 2.20715 148.848 6.71372 153.56 14.287L262.701 189.781C263.805 191.557 262.532 193.857 260.44 193.857H260.401Z" fill="#070707"></path><path d="M330.109 93.7227H305.544L301.479 105.475H288.489L310.668 43.7089H325.071L347.252 105.475H334.173L330.109 93.7227ZM326.751 83.8259L317.826 58.0238L308.902 83.8259H326.751ZM367.913 64.1209C369.503 61.5289 371.564 59.4964 374.099 58.0238C376.69 56.5511 379.635 55.8146 382.934 55.8146V68.8042H379.664C375.777 68.8042 372.831 69.7173 370.829 71.5434C368.885 73.3696 367.913 76.5506 367.913 81.0867V105.475H355.542V56.5215H367.913V64.1209ZM388.085 80.9983C388.085 75.9321 389.116 71.5139 391.179 67.7437C393.24 63.9148 396.097 60.9692 399.75 58.9074C403.402 56.7867 407.585 55.7264 412.298 55.7264C418.364 55.7264 423.372 57.258 427.319 60.3213C431.324 63.3255 434.005 67.5671 435.36 73.0456H422.017C421.311 70.9249 420.103 69.2753 418.393 68.0973C416.745 66.8601 414.684 66.2416 412.21 66.2416C408.674 66.2416 405.876 67.5376 403.814 70.1295C401.753 72.6627 400.722 76.2856 400.722 80.9983C400.722 85.6521 401.753 89.2751 403.814 91.867C405.876 94.4002 408.674 95.6666 412.21 95.6666C417.216 95.6666 420.486 93.428 422.017 88.951H435.36C434.005 94.2529 431.324 98.4649 427.319 101.587C423.314 104.709 418.305 106.27 412.298 106.27C407.585 106.27 403.402 105.239 399.75 103.178C396.097 101.057 393.24 98.1113 391.179 94.3413C389.116 90.5122 388.085 86.0645 388.085 80.9983ZM471.993 55.8146C475.703 55.8146 479.002 56.6395 481.889 58.2888C484.775 59.8793 487.014 62.2652 488.604 65.4464C490.255 68.5686 491.078 72.3386 491.078 76.7569V105.475H478.709V78.4358C478.709 74.5477 477.737 71.5728 475.793 69.511C473.847 67.3903 471.197 66.33 467.839 66.33C464.423 66.33 461.712 67.3903 459.71 69.511C457.766 71.5728 456.794 74.5477 456.794 78.4358V105.475H444.423V40.0859H456.794V62.6186C458.384 60.4979 460.506 58.8485 463.156 57.6703C465.807 56.4331 468.753 55.8146 471.993 55.8146ZM345.042 193.478H332.671L304.66 151.152V193.478H292.289V131.712H304.66L332.671 174.126V131.712H345.042V193.478ZM402.774 167.941C402.774 169.708 402.657 171.299 402.422 172.713H366.634C366.929 176.247 368.165 179.016 370.346 181.019C372.524 183.022 375.205 184.023 378.385 184.023C382.981 184.023 386.251 182.05 388.195 178.103H401.538C400.124 182.815 397.414 186.704 393.408 189.767C389.401 192.771 384.483 194.273 378.651 194.273C373.938 194.273 369.697 193.242 365.926 191.181C362.216 189.06 359.3 186.085 357.179 182.256C355.117 178.427 354.087 174.009 354.087 169.001C354.087 163.935 355.117 159.488 357.179 155.658C359.242 151.829 362.128 148.884 365.838 146.822C369.55 144.76 373.821 143.729 378.651 143.729C383.306 143.729 387.457 144.731 391.111 146.734C394.822 148.737 397.68 151.594 399.682 155.305C401.743 158.957 402.774 163.169 402.774 167.941ZM389.963 164.406C389.904 161.225 388.754 158.692 386.515 156.807C384.278 154.863 381.538 153.891 378.297 153.891C375.235 153.891 372.642 154.834 370.522 156.719C368.461 158.545 367.193 161.107 366.722 164.406H389.963ZM426.208 154.686V178.368C426.208 180.017 426.591 181.225 427.356 181.991C428.181 182.698 429.537 183.051 431.422 183.051H437.165V193.478H429.388C418.963 193.478 413.749 188.412 413.749 178.279V154.686H407.917V144.524H413.749V132.419H426.208V144.524H437.165V154.686H426.208ZM513.926 144.524L499.61 193.478H486.267L477.344 159.281L468.418 193.478H454.987L440.584 144.524H453.131L461.791 181.814L471.158 144.524H484.235L493.425 181.726L502.084 144.524H513.926ZM542.356 194.273C537.643 194.273 533.402 193.242 529.633 191.181C525.863 189.06 522.888 186.085 520.708 182.256C518.588 178.427 517.526 174.009 517.526 169.001C517.526 163.994 518.617 159.576 520.796 155.747C523.035 151.918 526.068 148.972 529.897 146.91C533.726 144.79 537.997 143.729 542.71 143.729C547.423 143.729 551.694 144.79 555.524 146.91C559.353 148.972 562.357 151.918 564.535 155.747C566.774 159.576 567.893 163.994 567.893 169.001C567.893 174.009 566.745 178.427 564.447 182.256C562.21 186.085 559.145 189.06 555.258 191.181C551.428 193.242 547.128 194.273 542.356 194.273ZM542.356 183.493C544.596 183.493 546.686 182.963 548.63 181.902C550.633 180.783 552.224 179.134 553.402 176.954C554.581 174.774 555.17 172.123 555.17 169.001C555.17 164.347 553.932 160.784 551.458 158.309C549.043 155.776 546.068 154.51 542.534 154.51C538.999 154.51 536.024 155.776 533.609 158.309C531.252 160.784 530.075 164.347 530.075 169.001C530.075 173.655 531.223 177.249 533.521 179.782C535.877 182.256 538.823 183.493 542.356 183.493ZM589.34 152.124C590.93 149.532 592.991 147.499 595.524 146.027C598.117 144.554 601.062 143.818 604.361 143.818V156.807H601.091C597.204 156.807 594.259 157.72 592.256 159.546C590.312 161.373 589.34 164.554 589.34 169.09V193.478H576.969V144.524H589.34V152.124ZM641.676 193.478L625.063 172.624V193.478H612.694V128.089H625.063V165.29L641.5 144.524H657.582L636.021 169.09L657.759 193.478H641.676Z" fill="#070707"></path></svg> 