<?xml version="1.0" standalone="no"?>
<!DOCTYPE svg PUBLIC "-//W3C//DTD SVG 20010904//EN"
 "http://www.w3.org/TR/2001/REC-SVG-20010904/DTD/svg10.dtd">
<svg version="1.0" xmlns="http://www.w3.org/2000/svg"
 width="128.000000pt" height="128.000000pt" viewBox="0 0 128.000000 128.000000"
 preserveAspectRatio="xMidYMid meet">
<metadata>
Created by potrace 1.11, written by Peter Selinger 2001-2013
</metadata>
<g transform="translate(0.000000,128.000000) scale(0.100000,-0.100000)"
fill="#000000" stroke="none">
<path d="M0 640 l0 -640 640 0 640 0 0 640 0 640 -640 0 -640 0 0 -640z m430
135 l0 -285 -55 0 -55 0 0 285 0 285 55 0 55 0 0 -285z m258 -132 l2 -413 -55
0 -55 0 0 416 0 415 53 -3 52 -3 3 -412z m262 132 l0 -285 -55 0 -55 0 0 285
0 285 55 0 55 0 0 -285z"/>
</g>
</svg>
